<?xml version="1.0" encoding="iso-8859-1"?>
<!-- Generator: Adobe Illustrator 19.0.0, SVG Export Plug-In . SVG Version: 6.00 Build 0)  -->
<svg version="1.1" id="Capa_1" xmlns="http://www.w3.org/2000/svg" xmlns:xlink="http://www.w3.org/1999/xlink" x="0px" y="0px"
	 viewBox="0 0 512 512" style="enable-background:new 0 0 512 512;" xml:space="preserve">
<path style="fill:#1273BF;" d="M512,256c0,141.385-114.615,256-256,256c-85.713,0-161.593-42.13-208.05-106.809
	c-6.029-8.38-11.557-17.147-16.541-26.248C11.379,342.455,0,300.554,0,256C0,114.615,114.615,0,256,0
	c95.493,0,178.772,52.287,222.772,129.787c5.789,10.177,10.888,20.793,15.255,31.786C505.626,190.798,512,222.657,512,256z"/>
<g>
	<polygon style="fill:#F0EFEB;" points="209.643,228.179 35.255,228.179 14.628,294.14 189.017,294.14 	"/>
	<path style="fill:#F0EFEB;" d="M491.907,182.742c-14.858,52.548-30.187,105.326-50.813,155.763
		c-17.46,42.736-53.238,66.476-101.24,66.602c-97.301,0.272-194.602,0.094-291.903,0.084c-6.029-8.38-11.557-17.147-16.541-26.248
		c3.751-11.745,7.722-24.168,10.564-33.061l4.347-13.584h12.507c83.143-0.115,166.285-0.084,249.428-0.084
		c33.792,0,33.813,0.01,44.042-31.901c10.595-33.05,20.626-66.288,31.943-99.088c3.918-11.348,1.609-13.249-9.759-13.197
		c-88.398,0.428-281.976,0.387-281.976,0.387l22.998-71.92c0,0,222.939-0.188,329.017,0.146
		c13.605,0.042,25.506,4.974,34.252,13.145c8.579,8.004,14.117,19.122,15.255,31.786
		C494.623,168.27,493.986,175.407,491.907,182.742z"/>
	<polygon style="fill:#F0EFEB;" points="92.403,188.725 92.502,188.418 92.403,188.418 	"/>
</g>
<g>
</g>
<g>
</g>
<g>
</g>
<g>
</g>
<g>
</g>
<g>
</g>
<g>
</g>
<g>
</g>
<g>
</g>
<g>
</g>
<g>
</g>
<g>
</g>
<g>
</g>
<g>
</g>
<g>
</g>
</svg>
