<?xml version="1.0" encoding="iso-8859-1"?>
<!-- Generator: Adobe Illustrator 19.0.0, SVG Export Plug-In . SVG Version: 6.00 Build 0)  -->
<svg version="1.1" id="Capa_1" xmlns="http://www.w3.org/2000/svg" xmlns:xlink="http://www.w3.org/1999/xlink" x="0px" y="0px"
	 viewBox="0 0 512 512" style="enable-background:new 0 0 512 512;" xml:space="preserve">
<path style="fill:#161C31;" d="M512,256c0,129.379-95.974,236.335-220.599,253.565C279.824,511.174,268.006,512,256,512
	c-12.006,0-23.824-0.825-35.401-2.435C95.974,492.335,0,385.379,0,256C0,114.615,114.615,0,256,0S512,114.615,512,256z"/>
<polygon style="fill:#8A91B3;" points="431.471,289.183 255.997,0.001 80.523,289.183 255.997,391.309 "/>
<polygon style="fill:#626790;" points="431.471,289.183 255.997,209.868 80.523,289.183 255.997,391.309 "/>
<path style="fill:#8A91B3;" d="M431.47,314.452L291.401,509.565C279.824,511.174,268.006,512,256,512
	c-12.006,0-23.824-0.825-35.401-2.435L80.52,314.452L256,416.925L431.47,314.452z"/>
<polygon style="fill:#626790;" points="431.471,289.183 255.997,391.309 255.997,0.001 "/>
<polygon style="fill:#454976;" points="431.471,289.183 255.997,391.309 255.997,209.868 "/>
<path style="fill:#626790;" d="M431.47,314.452L291.401,509.565C279.824,511.174,268.006,512,256,512v-95.075L431.47,314.452z"/>
<g>
</g>
<g>
</g>
<g>
</g>
<g>
</g>
<g>
</g>
<g>
</g>
<g>
</g>
<g>
</g>
<g>
</g>
<g>
</g>
<g>
</g>
<g>
</g>
<g>
</g>
<g>
</g>
<g>
</g>
</svg>
