<?xml version="1.0" encoding="iso-8859-1"?>
<!-- Generator: Adobe Illustrator 19.0.0, SVG Export Plug-In . SVG Version: 6.00 Build 0)  -->
<svg version="1.1" id="Capa_1" xmlns="http://www.w3.org/2000/svg" xmlns:xlink="http://www.w3.org/1999/xlink" x="0px" y="0px"
	 viewBox="0 0 512 512" style="enable-background:new 0 0 512 512;" xml:space="preserve">
<path style="fill:#BEBEBE;" d="M512,256c0,58.932-19.916,113.215-53.384,156.484c-18.704,24.189-41.66,44.941-67.73,61.137
	C351.713,497.957,305.507,512,256,512s-95.713-14.043-134.886-38.379c-11.222-6.969-21.87-14.785-31.838-23.353
	C34.617,403.32,0,333.699,0,256C0,114.615,114.615,0,256,0S512,114.615,512,256z"/>
<path style="fill:#F0EFEB;" d="M465.011,388.086l-6.395,24.398c-18.704,24.189-41.66,44.941-67.73,61.137H121.114
	c-11.222-6.969-21.87-14.785-31.838-23.353l29.445-112.358l-53.52,19.801l17.951-65.484l52.642-19.498l61.827-235.875h136.505
	L286.97,216.785l67.396-24.952l-17.951,65.494l-66.529,24.628l-27.815,106.13L465.011,388.086L465.011,388.086z"/>
<g>
</g>
<g>
</g>
<g>
</g>
<g>
</g>
<g>
</g>
<g>
</g>
<g>
</g>
<g>
</g>
<g>
</g>
<g>
</g>
<g>
</g>
<g>
</g>
<g>
</g>
<g>
</g>
<g>
</g>
</svg>
